<?xml version="1.0" encoding="UTF-8" standalone="no"?>
<!-- Created with Inkscape (http://www.inkscape.org/) -->

<svg
   xmlns:dc="http://purl.org/dc/elements/1.1/"
   xmlns:cc="http://creativecommons.org/ns#"
   xmlns:rdf="http://www.w3.org/1999/02/22-rdf-syntax-ns#"
   xmlns:svg="http://www.w3.org/2000/svg"
   xmlns="http://www.w3.org/2000/svg"
   xmlns:sodipodi="http://sodipodi.sourceforge.net/DTD/sodipodi-0.dtd"
   xmlns:inkscape="http://www.inkscape.org/namespaces/inkscape"
   id="svg3020"
   version="1.1"
   inkscape:version="0.48.2 r9819"
   width="1029.5625"
   height="138.25"
   xml:space="preserve"
   sodipodi:docname="Logo1398934.pdf"><metadata
     id="metadata3026"><rdf:RDF><cc:Work
         rdf:about=""><dc:format>image/svg+xml</dc:format><dc:type
           rdf:resource="http://purl.org/dc/dcmitype/StillImage" /><dc:title></dc:title></cc:Work></rdf:RDF></metadata><defs
     id="defs3024"><clipPath
       clipPathUnits="userSpaceOnUse"
       id="clipPath3036"><path
         d="M 0.207031,0 420.164,0 l 0,419.957 -419.956969,0 0,-419.957 z"
         id="path3038" /></clipPath></defs><sodipodi:namedview
     pagecolor="#ffffff"
     bordercolor="#666666"
     borderopacity="1"
     objecttolerance="10"
     gridtolerance="10"
     guidetolerance="10"
     inkscape:pageopacity="0"
     inkscape:pageshadow="2"
     inkscape:window-width="978"
     inkscape:window-height="656"
     id="namedview3022"
     showgrid="false"
     inkscape:zoom="0.3127542"
     inkscape:cx="514.78125"
     inkscape:cy="69.125"
     inkscape:window-x="1595"
     inkscape:window-y="167"
     inkscape:window-maximized="0"
     inkscape:current-layer="g3030" /><g
     id="g3028"
     inkscape:groupmode="layer"
     inkscape:label="Logo1398934"
     transform="matrix(1.25,0,0,-1.25,0,138.25)"><g
       id="g3030"
       transform="scale(0.24,0.24)"><g
         id="g3032"
         transform="translate(0,31.973991)"><g
           id="g3034"
           clip-path="url(#clipPath3036)"><path
             d="M 313.113,243.063 C 269.832,316.293 146.109,381.043 0.207031,312.609 L 0.207031,0 327.508,0 c 31.41,76.375 34.105,160.984 -14.395,243.063 z M 101.293,74.3398 81.2305,101.508 l 26.8515,19.828 0,197.363 31.074,0 0,-174.394 90.992,67.211 L 250.23,184.352 101.293,74.3281"
             style="fill:#000000;fill-opacity:1;fill-rule:evenodd;stroke:none"
             id="path3040"
             inkscape:connector-curvature="0" /><path
             d="m 0.207031,419.418 0,-52.891 C 134.105,406.641 233.137,383.867 298.574,330.84 341.27,296.266 377.543,247.625 389.566,196.746 406.578,124.645 400.102,58.1953 385.98,0 l 33.633,0 0,419.418 -419.405969,0"
             style="fill:#000000;fill-opacity:1;fill-rule:evenodd;stroke:none"
             id="path3042"
             inkscape:connector-curvature="0" /></g></g><path
         d="m 721.039,399.43 c -34.894,19.754 -83.332,32.25 -122.914,32.25 -78.648,0 -135.418,-52.082 -135.418,-131.657 0,-75.925 42.188,-92.57 106.25,-110.773 21.902,-6.242 62.074,-16.125 62.074,-44.727 0,-27.562 -25.543,-39.523 -49.511,-39.523 -34.915,0 -65.137,18.133 -90.672,40.418 L 447.078,63.125 C 487.191,35 535.641,18.332 585.133,18.332 c 39.59,0 80.75,10.9297 111.48,36.9532 31.262,26.539 40.664,66.6128 40.664,105.6488 0,63.496 -42.226,91.078 -96.937,107.214 l -26.055,7.805 c -17.715,5.727 -45.332,14.57 -45.332,37.473 0,21.859 25,32.832 43.75,32.832 25,0 48.957,-10.34 67.707,-25.844"
         style="fill:#000000;fill-opacity:1;fill-rule:nonzero;stroke:none"
         id="path3044" /><path
         d="m 976.25,288.988 c -18.75,10.395 -40.613,15.61 -62.477,15.61 -83.812,0 -149.402,-59.36 -149.402,-145.196 0,-80.6325 66.109,-139.4098 145.238,-139.4098 22.907,0 45.813,4.6797 66.645,15.082 l 0,80.1288 c -12.5,-11.394 -30.715,-18.1327 -47.363,-18.1327 -39.028,0 -66.602,27.0157 -66.602,65.4647 0,36.887 28.617,64.969 65.039,64.969 18.211,0 34.863,-8.246 48.926,-18.555"
         style="fill:#000000;fill-opacity:1;fill-rule:nonzero;stroke:none"
         id="path3046" /><path
         d="m 1174.83,222.102 c 38.5,0 60.9,-27.465 60.9,-60.079 0,-33.648 -22.4,-59.527 -60.9,-59.527 -38.51,0 -60.88,25.879 -60.88,59.527 0,32.614 22.37,60.079 60.88,60.079 z m 152.47,73.738 -95,0 0,-25.945 c -19.78,23.304 -52,34.703 -82.67,34.703 -79.02,0 -133.59,-65.602 -133.59,-142.071 0,-76.4684 55.62,-142.5309 134.63,-142.5309 31.19,0 63.94,11.9453 80.57,38.4453 l 1.06,0 0,-29.6875 95,0"
         style="fill:#000000;fill-opacity:1;fill-rule:nonzero;stroke:none"
         id="path3048" /><path
         d="m 1485.21,295.84 -95,0 0,-267.09 95,0 0,138.477 c 0,33.316 10.91,61.957 49.36,61.957 46.78,0 42.31,-44.774 42.31,-70.289 l 0,-130.1411 95,0 0,164.9841 c 0,65.575 -28.61,110.864 -100.36,110.864 -36.92,0 -63.43,-10.895 -85.27,-43.036 l -1.04,0"
         style="fill:#000000;fill-opacity:1;fill-rule:nonzero;stroke:none"
         id="path3050" /><path
         d="m 1935.63,28.75 95,0 0,432.098 -95,0 0,-190.953 c -19.84,23.304 -52.12,34.703 -82.84,34.703 -79.15,0 -133.82,-65.602 -133.82,-142.071 0,-76.4684 55.71,-142.5309 134.86,-142.5309 31.24,0 64.05,11.9453 80.71,38.4453 l 1.09,0 0,-29.6914 z m -57.72,193.352 c 38.6,0 61.05,-27.465 61.05,-60.079 0,-33.648 -22.45,-59.527 -61.05,-59.527 -38.59,0 -61.02,25.879 -61.02,59.527 0,32.614 22.43,60.079 61.02,60.079"
         style="fill:#000000;fill-opacity:1;fill-rule:nonzero;stroke:none"
         id="path3052" /><path
         d="m 2184.79,295.84 -95,0 0,-267.09 95,0 0,267.09 z m -47.7,155.828 c -29.17,0 -53.13,-23.961 -53.13,-53.125 0,-29.168 23.96,-53.125 53.13,-53.125 29.17,0 53.12,23.957 53.12,53.125 0,29.164 -23.95,53.125 -53.12,53.125"
         style="fill:#000000;fill-opacity:1;fill-rule:nonzero;stroke:none"
         id="path3054" /><path
         d="m 2351.46,421.262 -102.08,0 0,-392.512 224.47,0 0,86.668 -122.39,0"
         style="fill:#5c0eb2;fill-opacity:1;fill-rule:nonzero;stroke:none"
         id="path3056" /><path
         d="m 2644.83,222.102 c 38.5,0 60.9,-27.465 60.9,-60.079 0,-33.648 -22.4,-59.527 -60.9,-59.527 -38.51,0 -60.88,25.879 -60.88,59.527 0,32.614 22.37,60.079 60.88,60.079 z m 152.47,73.738 -95,0 0,-25.945 c -19.78,23.304 -52,34.703 -82.67,34.703 -79.02,0 -133.59,-65.602 -133.59,-142.071 0,-76.4684 55.62,-142.5309 134.63,-142.5309 31.19,0 63.94,11.9453 80.57,38.4453 l 1.06,0 0,-29.6875 95,0"
         style="fill:#5c0eb2;fill-opacity:1;fill-rule:nonzero;stroke:none"
         id="path3058" /><path
         d="m 2857.29,28.75 95,0 0,29.6875 1.04,0 c 17.19,-26.4961 49.48,-38.4453 80.73,-38.4453 79.69,0 134.9,65.543 134.9,142.5308 0,76.469 -54.69,142.067 -133.86,142.067 -30.72,0 -62.5,-11.395 -82.81,-34.699 l 0,190.949 -95,0 0,-432.09 z M 3010,222.102 c 38.59,0 61.04,-27.465 61.04,-60.079 0,-33.648 -22.45,-59.527 -61.04,-59.527 -38.6,0 -61.03,25.879 -61.03,59.527 0,32.614 22.43,60.079 61.03,60.079"
         style="fill:#5c0eb2;fill-opacity:1;fill-rule:nonzero;stroke:none"
         id="path3060" /><path
         d="m 3423.96,287.441 c -27.62,12.469 -57.85,17.157 -88.07,17.157 -58.36,0 -117.76,-29.121 -117.76,-94.59 0,-47.797 29.67,-62.344 59.35,-70.137 29.68,-7.797 59.39,-8.832 59.39,-29.617 0,-14.547 -17.72,-20.2579 -29.69,-20.2579 -23.41,0 -55.67,13.3829 -74.92,26.7769 l -34.35,-66.0855 c 32.3,-19.7656 69.81,-30.6914 107.84,-30.6914 62,0 126.12,29.125 126.12,99.3319 0,49.406 -33.37,70.211 -77.67,79.051 -13.03,2.601 -42.74,5.199 -42.74,23.406 0,13.52 18.75,18.231 29.69,18.231 16.14,0 36.46,-5.133 51.04,-12.825"
         style="fill:#5c0eb2;fill-opacity:1;fill-rule:nonzero;stroke:none"
         id="path3062" /></g></g></svg>